<svg width="20" height="20" viewBox="0 0 20 20" fill="none" xmlns="http://www.w3.org/2000/svg">
<path d="M13.4307 13.067L12.9152 13.8402C12.8123 13.9945 12.6762 14.1262 12.4969 14.1736C11.9095 14.3289 10.3499 14.399 7.97551 12.0246C5.60112 9.65017 5.6712 8.09058 5.82642 7.50314C5.87381 7.3238 6.0055 7.18772 6.15984 7.08483L6.93309 6.56933C7.50879 6.18553 7.66436 5.4077 7.28056 4.83199L5.82015 2.64138C5.48515 2.13888 4.83934 1.9469 4.28424 2.1848L3.62545 2.46714C3.12499 2.68163 2.71675 3.06655 2.47325 3.55356C2.26981 3.96043 2.11214 4.38889 2.09077 4.84329C2.02345 6.27527 2.33744 9.80324 6.26714 13.7329C10.1968 17.6626 13.7248 17.9766 15.1568 17.9093C15.6112 17.8879 16.0396 17.7302 16.4465 17.5268C16.9335 17.2833 17.3184 16.8751 17.5329 16.3746L17.8152 15.7158C18.0531 15.1607 17.8612 14.5149 17.3587 14.1799L15.1681 12.7195C14.5924 12.3357 13.8145 12.4913 13.4307 13.067Z" fill="#BDBDBD"/>
</svg>
