<svg width="30" height="30" viewBox="0 0 30 30" fill="none" xmlns="http://www.w3.org/2000/svg">
<path d="M20.1461 19.6004L19.3729 20.7603C19.2185 20.9918 19.0144 21.1893 18.7454 21.2604C17.8643 21.4933 15.5249 21.5984 11.9633 18.0368C8.40172 14.4752 8.50684 12.1358 8.73967 11.2547C8.81075 10.9857 9.0083 10.7815 9.23981 10.6272L10.3997 9.85396C11.2632 9.27826 11.4966 8.11151 10.9209 7.24796L8.73027 3.96204C8.22777 3.2083 7.25906 2.92032 6.42641 3.27717L5.43822 3.70068C4.68753 4.02241 4.07517 4.5998 3.70992 5.3303C3.40477 5.94061 3.16825 6.58331 3.1362 7.2649C3.03521 9.41287 3.50621 14.7048 9.40075 20.5994C15.2953 26.4939 20.5872 26.9649 22.7352 26.8639C23.4168 26.8318 24.0595 26.5953 24.6698 26.2902C25.4003 25.9249 25.9777 25.3126 26.2994 24.5619L26.7229 23.5737C27.0798 22.741 26.7918 21.7723 26.038 21.2698L22.7521 19.0792C21.8886 18.5035 20.7218 18.7369 20.1461 19.6004Z" fill="#8B2860"/>
</svg>
