<svg width="88" height="56" viewBox="0 0 88 56" fill="none" xmlns="http://www.w3.org/2000/svg">
<path d="M87.2501 10.379L87 7.51547L58.1623 10.0397C57.2096 10.1222 56.3113 10.519 55.6087 11.1677C54.9061 11.8164 54.4391 12.6803 54.281 13.6234L52.9729 21.475C52.9285 21.8766 52.9692 22.283 53.0923 22.6678C53.2155 23.0526 53.4184 23.407 53.6878 23.7081C53.9571 24.0093 54.2869 24.2502 54.6557 24.4153C55.0244 24.5804 55.4238 24.6659 55.8278 24.6663C55.9123 24.6667 55.9967 24.6629 56.0808 24.6548L80.11 22.5488L81.8652 42.5977L73.1597 43.3595C72.6114 41.0024 71.2309 38.9222 69.2719 37.5013C67.3128 36.0804 64.9068 35.4141 62.4959 35.625C60.085 35.8358 57.8312 36.9096 56.1485 38.649C54.4659 40.3884 53.4674 42.6766 53.3366 45.0932L48.9278 45.4784C48.74 45.4958 48.5507 45.4753 48.3709 45.4183C48.1912 45.3613 48.0247 45.2688 47.8813 45.1463C47.7361 45.0257 47.6162 44.8774 47.5286 44.7101C47.441 44.5428 47.3874 44.3598 47.371 44.1717L47.2459 42.7342L51.5412 42.3576L51.2896 39.4941L46.9944 39.875L46.865 38.3973L51.9279 35.3555C52.115 35.243 52.274 35.0894 52.3929 34.9063C52.5118 34.7232 52.5874 34.5154 52.614 34.2987C52.6406 34.082 52.6175 33.8621 52.5464 33.6557C52.4753 33.4492 52.3582 33.2617 52.2039 33.1073L50.3452 31.25L52.2039 29.3913C52.3645 29.2303 52.4845 29.0334 52.5542 28.8168C52.6239 28.6003 52.6412 28.3704 52.6048 28.1458C52.5683 27.9213 52.479 27.7087 52.3444 27.5253C52.2097 27.342 52.0334 27.1933 51.8301 27.0913L46.875 24.6131C47.0044 24.1057 47.1309 23.5968 47.2962 23.1008L52.7041 9.97503C53.0035 9.24283 53.4992 8.60748 54.1366 8.139C54.774 7.67053 55.5284 7.38711 56.3165 7.31997L85.9477 4.73247C86.2731 4.7058 86.6003 4.71448 86.9238 4.75835L87.3263 1.9121C86.7867 1.83725 86.2404 1.82279 85.6976 1.86897L56.065 4.45647C54.7514 4.56874 53.4942 5.04138 52.432 5.82231C51.3698 6.60325 50.5437 7.6622 50.0447 8.88253L44.6095 22.1075C43.9044 24.2224 43.4938 26.4242 43.3891 28.651C43.0769 27.935 42.6833 27.2573 42.2161 26.6313C41.4233 25.5737 40.4286 24.6836 39.2897 24.0127C38.1507 23.3419 36.8901 22.9034 35.5806 22.7228L33.2907 22.4008L40.9425 17.3005L42.9837 19.3418L45.0164 17.3092L42.1414 14.4342C41.9064 14.1991 41.5972 14.0527 41.2664 14.02C40.9357 13.9872 40.6038 14.0701 40.3272 14.2545L30.006 21.1343L20.4926 5.78041C19.9378 4.88467 19.1926 4.12204 18.3099 3.54666C17.4272 2.97129 16.4286 2.59727 15.3852 2.45116L1.07486 0.43866L0.675232 3.28635L14.9841 5.29885C15.6105 5.38595 16.21 5.61002 16.74 5.95512C17.2699 6.30023 17.7173 6.75789 18.0503 7.29553L18.9588 8.76035L1.07486 6.2476L0.675232 9.09385L6.88667 9.96785L5.68636 18.508L1.07486 17.8612L0.675232 20.7074L5.28673 21.3557L2.48504 41.2852L1.07486 41.0868L0.675232 43.9331L13.5854 45.7472C13.5953 48.4095 14.6598 50.9593 16.5458 52.8383C18.4319 54.7173 20.9856 55.7724 23.6479 55.7723C25.8235 55.7661 27.9387 55.0562 29.6775 53.7485C31.4163 52.4409 32.6853 50.6057 33.295 48.5173L37.6779 49.1325C37.8793 49.1611 38.0825 49.1755 38.286 49.1757C39.3244 49.1736 40.3273 48.7969 41.1103 48.1148C41.8933 47.4327 42.4038 46.491 42.5482 45.4626L43.8132 36.4538L44.5118 44.4218C44.6081 45.4937 45.1009 46.491 45.8937 47.2187C46.6865 47.9463 47.7223 48.352 48.7984 48.3563C48.9249 48.3563 49.0514 48.3563 49.1779 48.3405L53.5882 47.9538C54.1078 50.1581 55.355 52.123 57.1286 53.5314C58.9021 54.9398 61.0985 55.7095 63.3632 55.7163C63.6564 55.7163 63.9511 55.7033 64.2472 55.6775C66.6572 55.4684 68.9108 54.3965 70.5936 52.6587C72.2764 50.921 73.2754 48.6342 73.407 46.2187L87.2472 45.0069L86.9971 42.1434L84.7259 42.3418L82.9721 22.293L87.2472 21.9192L86.9971 19.0557L82.722 19.441L81.9716 10.8375L87.2501 10.379ZM41.2975 33.6751L41.0963 35.0982L35.4038 34.2975L35.8034 31.4513L41.3536 32.2304C41.3829 32.7126 41.3641 33.1966 41.2975 33.6751ZM9.73436 10.3675L20.9224 11.9401V11.9315L26.8464 21.4822L8.53261 18.9091L9.73436 10.3675ZM30.7564 46.7089C30.5586 48.1168 29.9478 49.4344 29.0011 50.495C28.0545 51.5557 26.8145 52.3118 25.4381 52.6677C24.0617 53.0237 22.6106 52.9634 21.2685 52.4945C19.9263 52.0257 18.7533 51.1694 17.8979 50.0338C17.0946 48.9677 16.604 47.6989 16.4812 46.3696C16.3584 45.0404 16.6082 43.7032 17.2026 42.5079C17.797 41.3126 18.7126 40.3065 19.8467 39.6023C20.9808 38.8981 22.2886 38.5236 23.6235 38.5209C23.963 38.5209 24.3021 38.5444 24.6384 38.5913C26.5249 38.859 28.2284 39.8638 29.3753 41.3855C30.5222 42.9072 31.0188 44.8216 30.7564 46.7089ZM38.0732 46.2863L33.6889 45.6696C33.6827 43.8038 33.1575 41.9766 32.1719 40.3924C31.1863 38.8082 29.7792 37.5295 28.1083 36.6996C26.4373 35.8696 24.5682 35.521 22.7104 35.6929C20.8526 35.8648 19.0792 36.5503 17.5889 37.6728C15.8535 38.9776 14.5916 40.8134 13.9951 42.901L5.33129 41.6848L8.13298 21.7625L29.4813 24.7568L35.1752 25.5575C36.2835 25.6859 37.3432 26.0852 38.2605 26.7203C39.1779 27.3553 39.9247 28.2066 40.435 29.1987L36.1987 28.6036C35.4441 28.4974 34.6782 28.6951 34.0693 29.1533C33.4604 29.6116 33.0583 30.2928 32.9514 31.0473L32.5518 33.8936C32.4452 34.6484 32.6427 35.4147 33.101 36.024C33.5592 36.6332 34.2407 37.0355 34.9955 37.1423L40.6895 37.9416L40.2899 40.7893L36.019 40.1898L35.6194 43.0361L39.8902 43.637L39.689 45.0601C39.6365 45.4366 39.4371 45.777 39.1343 46.0068C38.8314 46.2365 38.45 46.3371 38.0732 46.2863ZM48.761 28.7689L47.2962 30.2337C47.0267 30.5033 46.8754 30.8689 46.8754 31.25C46.8754 31.6312 47.0267 31.9968 47.2962 32.2663L48.8703 33.8375L46.5861 35.2103L46.2857 31.7776C46.1657 30.3715 46.1825 28.9571 46.336 27.5542L48.761 28.7689ZM70.5334 45.0313C70.6574 46.4475 70.3586 47.8687 69.6749 49.1151C68.9911 50.3615 67.9531 51.3771 66.6921 52.0335C65.4311 52.69 64.0038 52.9577 62.5907 52.8029C61.1775 52.6481 59.842 52.0777 58.753 51.1639C57.664 50.25 56.8705 49.0338 56.4728 47.6689C56.0751 46.3041 56.0911 44.8519 56.5187 43.4962C56.9463 42.1404 57.7664 40.9419 58.8752 40.0522C59.984 39.1625 61.3317 38.6216 62.7479 38.4979C62.9607 38.4792 63.1792 38.4692 63.3862 38.4692C65.1819 38.4724 66.9114 39.1477 68.2342 40.3622C69.557 41.5767 70.3772 43.2424 70.5334 45.0313ZM79.8614 19.7026L55.8192 21.866L57.1201 14.1035C57.1728 13.7892 57.3285 13.5012 57.5627 13.285C57.7969 13.0687 58.0963 12.9365 58.4139 12.909L79.1139 11.0977L79.8614 19.7026Z" fill="#8B2860"/>
</svg>
