<svg width="214" height="420" viewBox="0 0 214 420" fill="none" xmlns="http://www.w3.org/2000/svg">
<path opacity="0.1" fill-rule="evenodd" clip-rule="evenodd" d="M209.294 0L222.035 7.19307L235.578 1.65297L247.316 10.3855L261.447 6.58569L271.998 16.7202L286.493 14.7206L295.69 26.0969L310.322 25.9292L318.021 38.368L332.558 40.0348L338.636 53.34L352.85 56.8148L357.211 70.7767L370.877 76.005L373.454 90.403L386.357 97.302L387.108 111.91L399.044 120.371L397.958 134.957L408.739 144.847L405.832 159.182L415.288 170.345L410.607 184.203L418.589 196.462L412.207 209.624L418.589 222.787L410.607 235.046L415.288 248.904L405.832 260.067L408.739 274.402L397.958 284.292L399.044 298.878L387.108 307.34L386.357 321.947L373.454 328.846L370.877 343.244L357.211 348.472L352.85 362.434L338.636 365.909L332.558 379.214L318.021 380.881L310.322 393.32L295.691 393.152L286.493 404.528L271.998 402.529L261.447 412.663L247.317 408.864L235.578 417.596L222.035 412.056L209.294 419.249L196.554 412.056L183.011 417.596L171.272 408.864L157.142 412.663L146.591 402.529L132.096 404.528L122.898 393.152L108.267 393.32L100.568 380.881L86.031 379.214L79.9529 365.909L65.7393 362.434L61.3774 348.472L47.7115 343.244L45.1346 328.846L32.2318 321.947L31.4807 307.34L19.5448 298.878L20.631 284.292L9.84999 274.402L12.7566 260.067L3.30068 248.904L7.98167 235.046L0 222.787L6.38166 209.624L0 196.462L7.98167 184.203L3.30068 170.345L12.7564 159.182L9.84999 144.847L20.631 134.957L19.5447 120.371L31.4807 111.91L32.2318 97.302L45.1346 90.4031L47.7113 76.005L61.3774 70.7767L65.7393 56.8148L79.9529 53.3402L86.031 40.0348L100.568 38.3682L108.267 25.9292L122.898 26.0969L132.096 14.7206L146.591 16.7202L157.142 6.58583L171.272 10.3856L183.011 1.65297L196.553 7.19307L209.294 0Z" fill="#8E2957"/>
</svg>
