<svg width="92" height="92" viewBox="0 0 92 92" fill="none" xmlns="http://www.w3.org/2000/svg">
<path d="M83.8364 32.7507C78.7193 28.8227 71.9438 26.6593 64.7575 26.6593C60.4123 26.6593 56.218 27.4517 52.4492 28.9453C50.5655 25.3597 47.4228 22.1844 43.4251 19.8737C38.7185 17.1529 33.1224 15.7149 27.2427 15.7149C20.0564 15.7149 13.2809 17.8782 8.16378 21.8062C2.89913 25.8471 0 31.2659 0 37.064C0 42.286 2.38881 47.2561 6.74717 51.1475L6.82133 63.8688C6.82509 64.5327 7.16192 65.1771 7.75278 65.4798C8.45424 65.8393 9.12321 65.7533 9.61381 65.4974L22.8107 58.132C24.2739 58.319 25.7613 58.4136 27.2427 58.4136C27.2431 58.4136 27.2435 58.4136 27.2438 58.4136C31.534 58.4136 35.7437 57.6262 39.5352 56.1279C40.9188 58.7782 42.9892 61.2027 45.6784 63.2671C50.7955 67.1951 57.5712 69.3582 64.7575 69.3582C66.246 69.3582 67.7419 69.2625 69.2127 69.0736L82.4262 76.0374C83.1761 76.4193 83.732 76.326 84.2667 75.9867C84.8204 75.6354 85.1751 75.0435 85.179 74.3874L85.2532 62.0923C89.6112 58.2011 92 53.2306 92 48.0088C92 42.2107 89.1009 36.7921 83.8364 32.7507ZM27.2436 54.6583C27.2433 54.6583 27.2425 54.6583 27.2425 54.6583C25.7136 54.6583 24.1776 54.5453 22.6774 54.323C22.1403 54.2438 21.6228 54.3994 21.2293 54.7139L10.5575 60.6702L10.4974 50.309C10.4981 50.2714 10.4974 50.2335 10.4955 50.1956C10.4709 49.668 10.2255 49.1751 9.81884 48.8379C5.90884 45.5931 3.7551 41.4116 3.7551 37.064C3.7551 27.3625 14.2917 19.4698 27.2427 19.4698C36.8377 19.4698 45.5126 23.9519 49.0508 30.5477C47.8635 31.2049 46.7351 31.9396 45.6782 32.7507C40.4137 36.7919 37.5146 42.2107 37.5146 48.0088C37.5146 49.5867 37.7313 51.1362 38.1498 52.6381C34.798 53.9625 31.0626 54.6583 27.2436 54.6583ZM82.181 59.7827C81.7747 60.1199 81.5293 60.6132 81.5047 61.1406C81.5028 61.1747 81.5024 61.2087 81.5024 61.2427L81.4423 71.2743L70.7364 65.632C70.3473 65.3352 69.8445 65.1904 69.322 65.2678C67.8215 65.4905 66.2856 65.6033 64.7571 65.6033C54.1512 65.6033 45.1664 60.3097 42.2595 53.0647C42.2475 53.0294 42.2321 52.995 42.2177 52.9601C41.6017 51.3888 41.2693 49.7273 41.2693 48.0088C41.2693 41.7665 45.6324 36.2735 52.1933 33.1497C52.198 33.1478 52.2029 33.1467 52.2076 33.1448C52.281 33.1159 52.3506 33.0813 52.4184 33.0443C56.0062 31.3782 60.2341 30.4144 64.7571 30.4144C77.7081 30.4144 88.2447 38.3073 88.2447 48.0088C88.2449 52.3563 86.0912 56.5377 82.181 59.7827Z" fill="#8B2860"/>
<path d="M75.7873 41.7183H53.727C52.6901 41.7183 51.8495 42.5588 51.8495 43.5958C51.8495 44.6328 52.6901 45.4734 53.727 45.4734H75.7873C76.8239 45.4734 77.6649 44.6328 77.6649 43.5958C77.6649 42.5588 76.8241 41.7183 75.7873 41.7183Z" fill="#8B2860"/>
<path d="M75.7873 50.2186H53.727C52.6901 50.2186 51.8495 51.0592 51.8495 52.0962C51.8495 53.1332 52.6901 53.9737 53.727 53.9737H75.7873C76.8239 53.9737 77.6649 53.1332 77.6649 52.0962C77.6649 51.0592 76.8241 50.2186 75.7873 50.2186Z" fill="#8B2860"/>
<path d="M83.8364 32.7507C78.7193 28.8227 71.9438 26.6593 64.7575 26.6593C60.4123 26.6593 56.218 27.4517 52.4492 28.9453C50.5655 25.3597 47.4228 22.1844 43.4251 19.8737C38.7185 17.1529 33.1224 15.7149 27.2427 15.7149C20.0564 15.7149 13.2809 17.8782 8.16378 21.8062C2.89913 25.8471 0 31.2659 0 37.064C0 42.286 2.38881 47.2561 6.74717 51.1475L6.82133 63.8688C6.82509 64.5327 7.16192 65.1771 7.75278 65.4798C8.45424 65.8393 9.12321 65.7533 9.61381 65.4974L22.8107 58.132C24.2739 58.319 25.7613 58.4136 27.2427 58.4136C27.2431 58.4136 27.2435 58.4136 27.2438 58.4136C31.534 58.4136 35.7437 57.6262 39.5352 56.1279C40.9188 58.7782 42.9892 61.2027 45.6784 63.2671C50.7955 67.1951 57.5712 69.3582 64.7575 69.3582C66.246 69.3582 67.7419 69.2625 69.2127 69.0736L82.4262 76.0374C83.1761 76.4193 83.732 76.326 84.2667 75.9867C84.8204 75.6354 85.1751 75.0435 85.179 74.3874L85.2532 62.0923C89.6112 58.2011 92 53.2306 92 48.0088C92 42.2107 89.1009 36.7921 83.8364 32.7507ZM27.2436 54.6583C27.2433 54.6583 27.2425 54.6583 27.2425 54.6583C25.7136 54.6583 24.1776 54.5453 22.6774 54.323C22.1403 54.2438 21.6228 54.3994 21.2293 54.7139L10.5575 60.6702L10.4974 50.309C10.4981 50.2714 10.4974 50.2335 10.4955 50.1956C10.4709 49.668 10.2255 49.1751 9.81884 48.8379C5.90884 45.5931 3.7551 41.4116 3.7551 37.064C3.7551 27.3625 14.2917 19.4698 27.2427 19.4698C36.8377 19.4698 45.5126 23.9519 49.0508 30.5477C47.8635 31.2049 46.7351 31.9396 45.6782 32.7507C40.4137 36.7919 37.5146 42.2107 37.5146 48.0088C37.5146 49.5867 37.7313 51.1362 38.1498 52.6381C34.798 53.9625 31.0626 54.6583 27.2436 54.6583ZM82.181 59.7827C81.7747 60.1199 81.5293 60.6132 81.5047 61.1406C81.5028 61.1747 81.5024 61.2087 81.5024 61.2427L81.4423 71.2743L70.7364 65.632C70.3473 65.3352 69.8445 65.1904 69.322 65.2678C67.8215 65.4905 66.2856 65.6033 64.7571 65.6033C54.1512 65.6033 45.1664 60.3097 42.2595 53.0647C42.2475 53.0294 42.2321 52.995 42.2177 52.9601C41.6017 51.3888 41.2693 49.7273 41.2693 48.0088C41.2693 38.1175 51.971 30.4144 64.7571 30.4144C77.5432 30.4144 88.2449 38.3073 88.2449 48.0088C88.2449 52.3563 86.0912 56.5377 82.181 59.7827Z" fill="#8B2860"/>
<path d="M75.7873 41.7183H53.727C52.6901 41.7183 51.8495 42.5588 51.8495 43.5958C51.8495 44.6328 52.6901 45.4734 53.727 45.4734H75.7873C76.8239 45.4734 77.6649 44.6328 77.6649 43.5958C77.6649 42.5588 76.8241 41.7183 75.7873 41.7183Z" fill="#8B2860"/>
<path d="M75.7873 50.2186H53.727C52.6901 50.2186 51.8495 51.0592 51.8495 52.0962C51.8495 53.1332 52.6901 53.9737 53.727 53.9737H75.7873C76.8239 53.9737 77.6649 53.1332 77.6649 52.0962C77.6649 51.0592 76.8241 50.2186 75.7873 50.2186Z" fill="#8B2860"/>
</svg>
