<svg width="92" height="92" viewBox="0 0 92 92" fill="none" xmlns="http://www.w3.org/2000/svg">
<path d="M67.5624 17.25H15.8124C15.0175 17.25 14.3749 17.8926 14.3749 18.6875V90.5625C14.3749 91.3574 15.0175 92 15.8124 92C16.6074 92 17.2499 91.3574 17.2499 90.5625V20.125H66.1249V90.5625C66.1249 91.3574 66.7675 92 67.5624 92C68.3574 92 68.9999 91.3574 68.9999 90.5625V18.6875C68.9999 17.8926 68.3574 17.25 67.5624 17.25Z" fill="#8D1A52"/>
<path d="M63.2499 21.5625H20.1249C19.33 21.5625 18.6874 22.2051 18.6874 23V90.5625C18.6874 91.3574 19.33 92 20.1249 92C20.9199 92 21.5624 91.3574 21.5624 90.5625V24.4375H61.8124V90.5625C61.8124 91.3574 62.455 92 63.2499 92C64.0449 92 64.6874 91.3574 64.6874 90.5625V23C64.6874 22.2051 64.0449 21.5625 63.2499 21.5625Z" fill="#8D1A52"/>
<path d="M77.2016 46.4203C76.6396 45.8583 75.7311 45.8583 75.1691 46.4203L72.2942 49.2953C71.7321 49.8573 71.7321 50.7658 72.2942 51.3279C72.5745 51.6082 72.9425 51.7491 73.3104 51.7491C73.6784 51.7491 74.0464 51.6082 74.3267 51.3279L77.2016 48.4529C77.7637 47.8909 77.7637 46.9824 77.2016 46.4203Z" fill="#8D1A52"/>
<path d="M80.0766 49.2953L77.2017 46.4203C76.6397 45.8583 75.7312 45.8583 75.1692 46.4203C74.6071 46.9824 74.6071 47.8909 75.1692 48.4529L78.0441 51.3279C78.3244 51.6082 78.6924 51.7491 79.0604 51.7491C79.4284 51.7491 79.7963 51.6082 80.0766 51.3279C80.6387 50.7658 80.6387 49.8573 80.0766 49.2953Z" fill="#8D1A52"/>
<path d="M80.0766 57.9203C79.5146 57.3583 78.6061 57.3583 78.0441 57.9203L75.1692 60.7953C74.6071 61.3573 74.6071 62.2658 75.1692 62.8279C75.4495 63.1082 75.8175 63.2491 76.1854 63.2491C76.5534 63.2491 76.9214 63.1082 77.2017 62.8279L80.0766 59.9529C80.6387 59.3909 80.6387 58.4824 80.0766 57.9203Z" fill="#8D1A52"/>
<path d="M77.2016 60.7953L74.3267 57.9203C73.7647 57.3583 72.8562 57.3583 72.2942 57.9203C71.7321 58.4824 71.7321 59.3909 72.2942 59.9529L75.1691 62.8279C75.4494 63.1082 75.8174 63.2491 76.1854 63.2491C76.5534 63.2491 76.9213 63.1082 77.2016 62.8279C77.7637 62.2658 77.7637 61.3573 77.2016 60.7953Z" fill="#8D1A52"/>
<path d="M41.6874 21.5625C40.8925 21.5625 40.2499 22.2051 40.2499 23V90.5625C40.2499 91.3574 40.8925 92 41.6874 92C42.4824 92 43.1249 91.3574 43.1249 90.5625V23C43.1249 22.2051 42.4824 21.5625 41.6874 21.5625Z" fill="#8D1A52"/>
<path d="M70.4374 89.125H12.9374C12.1425 89.125 11.4999 89.7676 11.4999 90.5625C11.4999 91.3574 12.1425 92 12.9374 92H70.4374C71.2324 92 71.8749 91.3574 71.8749 90.5625C71.8749 89.7676 71.2324 89.125 70.4374 89.125Z" fill="#8D1A52"/>
<path d="M41.6874 0C34.5531 0 28.7499 5.80319 28.7499 12.9375C28.7499 13.7324 29.3925 14.375 30.1874 14.375C30.9824 14.375 31.6249 13.7324 31.6249 12.9375C31.6249 7.39019 36.1401 2.875 41.6874 2.875C47.2348 2.875 51.7499 7.39019 51.7499 12.9375C51.7499 13.7324 52.3925 14.375 53.1874 14.375C53.9824 14.375 54.6249 13.7324 54.6249 12.9375C54.6249 5.80319 48.8218 0 41.6874 0Z" fill="#8D1A52"/>
<path d="M53.1874 11.5H30.1874C29.3925 11.5 28.7499 12.1426 28.7499 12.9375C28.7499 13.7324 29.3925 14.375 30.1874 14.375H53.1874C53.9824 14.375 54.6249 13.7324 54.6249 12.9375C54.6249 12.1426 53.9824 11.5 53.1874 11.5Z" fill="#8D1A52"/>
<path d="M41.6874 5.75C40.8925 5.75 40.2499 6.39256 40.2499 7.1875V12.9375C40.2499 13.7324 40.8925 14.375 41.6874 14.375C42.4824 14.375 43.1249 13.7324 43.1249 12.9375V7.1875C43.1249 6.39256 42.4824 5.75 41.6874 5.75Z" fill="#8D1A52"/>
</svg>
