<svg width="78" height="92" viewBox="0 0 78 92" fill="none" xmlns="http://www.w3.org/2000/svg">
<path d="M78 86.3047L78 5.50881C78 4.04778 77.4196 2.64659 76.3865 1.61349C75.3534 0.580391 73.9522 -1.76934e-07 72.4912 -2.40798e-07L65.1461 -5.61861e-07C63.6851 -6.25725e-07 62.2839 0.58039 61.2508 1.61349C60.2177 2.64659 59.6373 4.04778 59.6373 5.50881L59.6373 14.6902L6.3855 14.6902C4.92447 14.6902 3.52328 15.2705 2.49018 16.3036C1.45708 17.3368 0.876685 18.7379 0.876685 20.199L0.876683 71.6145C0.876683 73.0756 1.45707 74.4767 2.49018 75.5098C3.52328 76.5429 4.92447 77.1233 6.38549 77.1233L59.6373 77.1233L59.6373 86.3047C59.6373 87.7657 60.2177 89.1669 61.2508 90.2C62.2839 91.2331 63.6851 91.8135 65.1461 91.8135L72.4912 91.8135C73.9522 91.8135 75.3534 91.2331 76.3865 90.2C77.4196 89.1669 78 87.7657 78 86.3047ZM6.38549 73.4508C5.89848 73.4508 5.43142 73.2573 5.08705 72.913C4.74268 72.5686 4.54922 72.1015 4.54922 71.6145L4.54922 20.199C4.54922 19.712 4.74268 19.2449 5.08705 18.9005C5.43142 18.5562 5.89848 18.3627 6.3855 18.3627L59.6373 18.3627L59.6373 73.4508L6.38549 73.4508ZM65.1461 88.141C64.6591 88.141 64.192 87.9475 63.8477 87.6031C63.5033 87.2588 63.3098 86.7917 63.3098 86.3047L63.3098 5.50881C63.3098 5.0218 63.5033 4.55474 63.8477 4.21037C64.192 3.866 64.6591 3.67254 65.1461 3.67254L72.4912 3.67254C72.9782 3.67254 73.4453 3.866 73.7896 4.21037C74.134 4.55474 74.3275 5.0218 74.3275 5.50881L74.3275 86.3047C74.3275 86.7917 74.134 87.2588 73.7896 87.6031C73.4453 87.9475 72.9782 88.141 72.4912 88.141L65.1461 88.141Z" fill="#8B2860"/>
<path d="M22.9119 58.7606L22.9119 62.4331C22.9119 63.8942 23.4923 65.2954 24.5254 66.3285C25.5585 67.3616 26.9597 67.942 28.4207 67.942L43.1108 67.942C44.5719 67.942 45.9731 67.3616 47.0062 66.3285C48.0393 65.2954 48.6197 63.8942 48.6197 62.4332L48.6197 58.7606C48.6197 57.2996 48.0393 55.8984 47.0062 54.8653C45.9731 53.8322 44.5719 53.2518 43.1109 53.2518L28.4207 53.2518C26.9597 53.2518 25.5585 53.8322 24.5254 54.8653C23.4923 55.8984 22.9119 57.2996 22.9119 58.7606ZM43.1109 56.9243C43.5979 56.9243 44.0649 57.1178 44.4093 57.4622C44.7537 57.8065 44.9471 58.2736 44.9471 58.7606L44.9471 62.4332C44.9471 62.9202 44.7537 63.3872 44.4093 63.7316C44.0649 64.076 43.5979 64.2694 43.1108 64.2694L28.4207 64.2694C27.9337 64.2694 27.4666 64.076 27.1223 63.7316C26.7779 63.3872 26.5844 62.9202 26.5844 62.4331L26.5844 58.7606C26.5844 58.2736 26.7779 57.8065 27.1223 57.4622C27.4666 57.1178 27.9337 56.9243 28.4207 56.9243L43.1109 56.9243Z" fill="#8B2860"/>
<path d="M10.0581 31.2166C10.0581 31.7036 10.2515 32.1707 10.5959 32.5151C10.9403 32.8594 11.4073 33.0529 11.8943 33.0529L52.2923 33.0529C52.7793 33.0529 53.2463 32.8594 53.5907 32.5151C53.9351 32.1707 54.1285 31.7036 54.1285 31.2166C54.1285 30.7296 53.9351 30.2625 53.5907 29.9182C53.2463 29.5738 52.7793 29.3803 52.2923 29.3803L11.8943 29.3803C11.4073 29.3803 10.9403 29.5738 10.5959 29.9182C10.2515 30.2625 10.0581 30.7296 10.0581 31.2166Z" fill="#8B2860"/>
</svg>
