<svg width="20" height="20" viewBox="0 0 20 20" fill="none" xmlns="http://www.w3.org/2000/svg">
<path fill-rule="evenodd" clip-rule="evenodd" d="M10.9741 18.5414C13.0898 17.0977 17.9167 13.305 17.9167 8.75004C17.9167 4.37779 14.3723 0.833374 10 0.833374C5.62776 0.833374 2.08334 4.37779 2.08334 8.75004C2.08334 13.305 6.91026 17.0977 9.02597 18.5414C9.6176 18.9451 10.3824 18.9451 10.9741 18.5414ZM10 11.25C11.3807 11.25 12.5 10.1308 12.5 8.75004C12.5 7.36933 11.3807 6.25004 10 6.25004C8.6193 6.25004 7.50001 7.36933 7.50001 8.75004C7.50001 10.1308 8.6193 11.25 10 11.25Z" fill="#BDBDBD"/>
</svg>
