<svg width="92" height="92" viewBox="0 0 92 92" fill="none" xmlns="http://www.w3.org/2000/svg">
<path d="M53.0078 32.6357C53.7095 31.9341 53.7095 30.7963 53.0078 30.0944C52.306 29.3929 51.1686 29.3929 50.4665 30.0944C50.0085 30.5524 49.2635 30.5524 48.8055 30.0944C48.1036 29.3929 46.9662 29.3929 46.2642 30.0944C45.5625 30.7961 45.5625 31.9339 46.2642 32.6357C47.1939 33.5653 48.4148 34.0301 49.636 34.0301C50.8572 34.0301 52.0783 33.5653 53.0078 32.6357Z" fill="#8B2860"/>
<path d="M14.8857 62.7456C15.1806 62.8245 15.4797 62.8637 15.7769 62.8637C16.3699 62.8637 16.9553 62.7081 17.4825 62.4035C18.2741 61.9464 18.8404 61.2086 19.0769 60.3256C19.3339 59.3672 18.765 58.3819 17.8063 58.125C16.9012 57.882 15.9721 58.3764 15.6553 59.2389C14.7486 59.0822 13.8575 59.6397 13.6151 60.545C13.3582 61.5035 13.9271 62.4889 14.8857 62.7456Z" fill="#8B2860"/>
<path d="M83.0142 57.8594H80.1998C78.1953 54.56 75.5902 51.7401 72.5724 49.5059V22.9801C72.5724 10.3089 62.2634 0 49.5923 0C36.9213 0 26.6123 10.3089 26.6123 22.9801V48.9258C22.2302 42.9466 13.9326 41.0929 7.36775 44.8829C0.331905 48.9453 -2.08759 57.9744 1.97479 65.0102L8.4403 76.2089C5.60789 77.5253 3.63833 80.396 3.63833 83.7195C3.63833 88.2842 7.35211 91.998 11.9171 91.998L28.7962 91.9998C31.5443 91.9998 33.9827 90.6527 35.4896 88.5856C38.0997 86.4164 39.8885 83.3932 40.5334 80.04C41.2015 76.5659 40.5941 72.9634 38.8231 69.8961L28.7245 52.405C32.9511 49.2647 38.0688 47.4871 43.3505 47.3363L48.3216 52.3074C48.6725 52.6581 49.1323 52.8337 49.5921 52.8337C50.052 52.8337 50.5118 52.6581 50.8627 52.3074L55.8332 47.3369C63.8105 47.5638 71.2019 51.4891 75.8776 57.8596H55.7017C50.7477 57.8596 46.7173 61.8899 46.7173 66.8439V90.2033C46.7173 91.1955 47.522 92.0002 48.5142 92.0002H79.7031C80.6953 92.0002 81.4999 91.1955 81.4999 90.2033C81.4999 89.2111 80.6953 88.4064 79.7031 88.4064H50.3111V66.8438C50.3111 63.8714 52.7293 61.4531 55.7017 61.4531H83.0142C85.9866 61.4531 88.4048 63.8714 88.4048 66.8438V88.4062H77.4444C76.4522 88.4062 75.6476 89.2109 75.6476 90.2031C75.6476 91.1954 76.4522 92 77.4444 92H90.2017C91.1939 92 91.9986 91.1954 91.9986 90.2031V66.8438C91.9986 61.8898 87.9682 57.8594 83.0142 57.8594ZM49.5923 3.59375C60.2819 3.59375 68.9786 12.2903 68.9786 22.9801V47.2265C65.2925 45.2475 61.18 44.0511 56.8984 43.7882V39.647C60.9414 37.1764 63.6459 32.7216 63.6459 27.6467V20.2628C63.6459 19.2706 62.8412 18.4659 61.849 18.4659H57.7766C56.1577 18.4659 54.6469 17.7287 53.6464 16.4978C54.2617 15.2179 54.6069 13.7845 54.6069 12.2721C54.6069 11.2799 53.8022 10.4752 52.81 10.4752C51.8178 10.4752 51.0131 11.2799 51.0131 12.2721C51.0131 15.6874 48.2346 18.4659 44.8193 18.4659H37.336C36.3438 18.4659 35.5392 19.2706 35.5392 20.2628V27.6467C35.5392 32.7216 38.2436 37.1764 42.2866 39.647V43.787C38.0469 44.0479 33.9227 45.2281 30.2064 47.2203V22.9801C30.206 12.2903 38.9027 3.59375 49.5923 3.59375ZM39.1327 27.6465V22.0595H44.8191C47.3849 22.0595 49.7217 21.0658 51.469 19.4449C53.1187 21.0948 55.3777 22.0595 57.7766 22.0595H60.0521V27.6465C60.0521 33.414 55.3599 38.1061 49.5925 38.1061C43.8251 38.1061 39.1327 33.414 39.1327 27.6465ZM9.1648 47.9951C14.485 44.9237 21.3117 46.7531 24.3833 52.0727C27.4547 57.3925 25.6253 64.2198 20.3054 67.2912C14.9847 70.3626 8.15837 68.533 5.08715 63.2133C2.01558 57.8933 3.8448 51.0665 9.1648 47.9951ZM7.23226 83.7195C7.23226 81.1361 9.33389 79.0345 11.9173 79.0345H21.9821V88.4044H11.9173C9.33389 88.4043 7.23226 86.3027 7.23226 83.7195ZM28.7962 88.4061H25.5757V79.0345H28.7962C31.3799 79.0345 33.4819 81.1365 33.4819 83.7204C33.4821 86.3041 31.3799 88.4061 28.7962 88.4061ZM36.5767 80.8887C35.4175 77.7136 32.3675 75.4407 28.7962 75.4407H12.1464L9.90206 71.5535C11.4591 72.0933 13.1021 72.3747 14.7597 72.3747C17.2576 72.3747 19.7877 71.7397 22.1019 70.4035C25.953 68.1801 28.4171 64.4677 29.1962 60.4095L35.7106 71.6928C37.3596 74.5486 37.5897 77.9179 36.5767 80.8887ZM49.5923 48.4953L45.8802 44.7832V41.1987C47.0636 41.5233 48.3074 41.7001 49.5923 41.7001C50.8773 41.7001 52.1211 41.5233 53.3045 41.1987V44.7832L49.5923 48.4953Z" fill="#8B2860"/>
<path d="M69.3569 68.8203C65.9881 68.8203 63.2475 71.5609 63.2475 74.9297C63.2475 78.2985 65.9881 81.0391 69.3569 81.0391C72.7257 81.0391 75.4662 78.2985 75.4662 74.9297C75.4662 71.5609 72.7257 68.8203 69.3569 68.8203ZM69.3569 77.4453C67.9697 77.4453 66.8412 76.3169 66.8412 74.9297C66.8412 73.5425 67.9697 72.4141 69.3569 72.4141C70.7441 72.4141 71.8725 73.5425 71.8725 74.9297C71.8725 76.3169 70.7441 77.4453 69.3569 77.4453Z" fill="#8B2860"/>
<path d="M69.3569 88.4062C68.8843 88.4062 68.4207 88.5983 68.0865 88.9327C67.7523 89.2671 67.56 89.7287 67.56 90.2031C67.56 90.6757 67.7521 91.1393 68.0865 91.4733C68.4207 91.8076 68.8843 92 69.3569 92C69.8295 92 70.293 91.8077 70.6271 91.4733C70.9613 91.1393 71.1537 90.6757 71.1537 90.2031C71.1537 89.7305 70.9615 89.267 70.6271 88.9327C70.293 88.5983 69.8295 88.4062 69.3569 88.4062Z" fill="#8B2860"/>
</svg>
