<svg width="254" height="420" viewBox="0 0 254 420" fill="none" xmlns="http://www.w3.org/2000/svg">
<path opacity="0.1" fill-rule="evenodd" clip-rule="evenodd" d="M44.2945 0L57.0354 7.19307L70.5777 1.65297L82.3164 10.3855L96.4467 6.58569L106.998 16.7202L121.493 14.7206L130.69 26.0969L145.322 25.9292L153.021 38.368L167.558 40.0348L173.636 53.34L187.85 56.8148L192.211 70.7767L205.877 76.005L208.454 90.403L221.357 97.302L222.108 111.91L234.044 120.371L232.958 134.957L243.739 144.847L240.832 159.182L250.288 170.345L245.607 184.203L253.589 196.462L247.207 209.624L253.589 222.787L245.607 235.046L250.288 248.904L240.832 260.067L243.739 274.402L232.958 284.292L234.044 298.878L222.108 307.34L221.357 321.947L208.454 328.846L205.877 343.244L192.211 348.472L187.85 362.434L173.636 365.909L167.558 379.214L153.021 380.881L145.322 393.32L130.691 393.152L121.493 404.528L106.998 402.529L96.4467 412.663L82.3166 408.864L70.5779 417.596L57.0354 412.056L44.2945 419.249L31.5535 412.056L18.0111 417.596L6.27238 408.864L-7.85789 412.663L-18.409 402.529L-32.9043 404.528L-42.1016 393.152L-56.7333 393.32L-64.4316 380.881L-78.969 379.214L-85.0471 365.909L-99.2607 362.434L-103.623 348.472L-117.289 343.244L-119.865 328.846L-132.768 321.947L-133.519 307.34L-145.455 298.878L-144.369 284.292L-155.15 274.402L-152.243 260.067L-161.699 248.904L-157.018 235.046L-165 222.787L-158.618 209.624L-165 196.462L-157.018 184.203L-161.699 170.345L-152.244 159.182L-155.15 144.847L-144.369 134.957L-145.455 120.371L-133.519 111.91L-132.768 97.302L-119.865 90.4031L-117.289 76.005L-103.623 70.7767L-99.2607 56.8148L-85.0471 53.3402L-78.969 40.0348L-64.4317 38.3682L-56.7333 25.9292L-42.1016 26.0969L-32.9043 14.7206L-18.409 16.7202L-7.85789 6.58583L6.27238 10.3856L18.0109 1.65297L31.5534 7.19307L44.2945 0Z" fill="#8E2957"/>
</svg>
