<svg width="92" height="92" viewBox="0 0 92 92" fill="none" xmlns="http://www.w3.org/2000/svg">
<path d="M24.4375 51.75H8.625C7.10053 51.7483 5.63899 51.1419 4.56103 50.064C3.48306 48.986 2.87671 47.5245 2.875 46V8.625C2.87671 7.10053 3.48306 5.63899 4.56103 4.56103C5.63899 3.48306 7.10053 2.87671 8.625 2.875H46C47.5245 2.87671 48.986 3.48306 50.064 4.56103C51.1419 5.63899 51.7483 7.10053 51.75 8.625V33.0625H48.875V8.625C48.8741 7.86278 48.5709 7.13204 48.0319 6.59307C47.493 6.05409 46.7622 5.7509 46 5.75H8.625C7.86278 5.7509 7.13204 6.05409 6.59307 6.59307C6.05409 7.13204 5.7509 7.86278 5.75 8.625V46C5.7509 46.7622 6.05409 47.493 6.59307 48.0319C7.13204 48.5709 7.86278 48.8741 8.625 48.875H24.4375V51.75Z" fill="#8B2860"/>
<path d="M21.5625 46H12.9375C12.5563 46 12.1906 45.8485 11.921 45.579C11.6515 45.3094 11.5 44.9437 11.5 44.5625V10.0625C11.5 9.68125 11.6515 9.31562 11.921 9.04603C12.1906 8.77645 12.5563 8.625 12.9375 8.625H30.1875C33.6187 8.625 36.9094 9.98805 39.3357 12.4143C41.7619 14.8406 43.125 18.1313 43.125 21.5625C43.125 24.9937 41.7619 28.2844 39.3357 30.7107C36.9094 33.1369 33.6187 34.5 30.1875 34.5H23V44.5625C23 44.9437 22.8485 45.3094 22.579 45.579C22.3094 45.8485 21.9437 46 21.5625 46ZM14.375 43.125H20.125V33.0625C20.125 32.6813 20.2765 32.3156 20.546 32.046C20.8156 31.7764 21.1813 31.625 21.5625 31.625H30.1875C32.8562 31.625 35.4157 30.5648 37.3028 28.6778C39.1898 26.7907 40.25 24.2312 40.25 21.5625C40.25 18.8938 39.1898 16.3343 37.3028 14.4472C35.4157 12.5602 32.8562 11.5 30.1875 11.5H14.375V43.125ZM30.1875 25.875H21.5625C21.1813 25.875 20.8156 25.7236 20.546 25.454C20.2765 25.1844 20.125 24.8187 20.125 24.4375V18.6875C20.125 18.3063 20.2765 17.9406 20.546 17.671C20.8156 17.4015 21.1813 17.25 21.5625 17.25H30.1875C31.3312 17.25 32.4281 17.7044 33.2369 18.5131C34.0456 19.3219 34.5 20.4188 34.5 21.5625C34.5 22.7062 34.0456 23.8031 33.2369 24.6119C32.4281 25.4206 31.3312 25.875 30.1875 25.875ZM23 23H30.1875C30.5687 23 30.9344 22.8485 31.204 22.579C31.4736 22.3094 31.625 21.9437 31.625 21.5625C31.625 21.1813 31.4736 20.8156 31.204 20.546C30.9344 20.2765 30.5687 20.125 30.1875 20.125H23V23Z" fill="#8B2860"/>
<path d="M87.2665 59.3585C86.1268 58.213 84.5905 57.5494 82.9752 57.5047L77.0965 39.8689C76.7157 38.7235 75.9836 37.7272 75.0044 37.0215C74.0251 36.3158 72.8485 35.9365 71.6414 35.9375H37.6086C36.4015 35.9365 35.2248 36.3158 34.2456 37.0215C33.2664 37.7272 32.5343 38.7235 32.1535 39.8689L26.2748 57.5047C24.6267 57.5549 23.0628 58.2449 21.9148 59.4286C20.7668 60.6122 20.1248 62.1964 20.125 63.8453V74.75C20.1267 76.2745 20.7331 77.736 21.811 78.814C22.889 79.8919 24.3505 80.4983 25.875 80.5H35.9375V86.25H27.3125V83.375H24.4375V86.25C24.4384 87.0122 24.7416 87.743 25.2806 88.2819C25.8195 88.8209 26.5503 89.1241 27.3125 89.125H35.9375C36.6997 89.1241 37.4305 88.8209 37.9694 88.2819C38.5084 87.743 38.8116 87.0122 38.8125 86.25V80.5H70.4375V86.25C70.4384 87.0122 70.7416 87.743 71.2806 88.2819C71.8195 88.8209 72.5503 89.1241 73.3125 89.125H81.9375C82.6997 89.1241 83.4305 88.8209 83.9694 88.2819C84.5084 87.743 84.8116 87.0122 84.8125 86.25V80.318C86.046 79.9977 87.1384 79.2774 87.9188 78.2698C88.6992 77.2623 89.1234 76.0244 89.125 74.75V63.8453C89.1273 63.0117 88.9642 62.1859 88.6452 61.4158C88.3262 60.6456 87.8576 59.9464 87.2665 59.3585ZM37.6086 38.8125H71.6414C72.245 38.8121 72.8334 39.0017 73.323 39.3546C73.8127 39.7075 74.1788 40.2057 74.3692 40.7785L74.6722 41.6875H34.5778L34.8808 40.7785C35.0712 40.2057 35.4373 39.7075 35.927 39.3546C36.4166 39.0017 37.005 38.8121 37.6086 38.8125ZM33.6195 44.5625H75.6305L79.943 57.5H29.307L33.6195 44.5625ZM81.9375 86.25H73.3125V80.5H81.9375L81.9389 86.25H81.9375ZM86.25 74.75C86.2491 75.5122 85.9459 76.243 85.4069 76.7819C84.868 77.3209 84.1372 77.6241 83.375 77.625H25.875C25.1128 77.6241 24.382 77.3209 23.8431 76.7819C23.3041 76.243 23.0009 75.5122 23 74.75V63.8453C23 62.9249 23.3657 62.0423 24.0165 61.3915C24.6673 60.7407 25.5499 60.375 26.4703 60.375H82.7797C83.7001 60.375 84.5827 60.7407 85.2335 61.3915C85.8843 62.0423 86.25 62.9249 86.25 63.8453V74.75Z" fill="#8B2860"/>
<path d="M31.625 63.25C30.4878 63.25 29.3761 63.5872 28.4305 64.2191C27.4849 64.8509 26.7479 65.7489 26.3127 66.7996C25.8775 67.8502 25.7636 69.0064 25.9855 70.1218C26.2074 71.2372 26.755 72.2617 27.5591 73.0659C28.3633 73.87 29.3878 74.4177 30.5032 74.6395C31.6186 74.8614 32.7748 74.7475 33.8254 74.3123C34.8761 73.8771 35.7741 73.1401 36.406 72.1945C37.0378 71.249 37.375 70.1372 37.375 69C37.3733 67.4755 36.7669 66.014 35.689 64.936C34.611 63.8581 33.1495 63.2517 31.625 63.25ZM31.625 71.875C31.0564 71.875 30.5005 71.7064 30.0277 71.3905C29.5549 71.0746 29.1865 70.6256 28.9688 70.1002C28.7512 69.5749 28.6943 68.9968 28.8052 68.4391C28.9162 67.8814 29.19 67.3691 29.5921 66.9671C29.9941 66.565 30.5064 66.2912 31.0641 66.1802C31.6218 66.0693 32.1999 66.1262 32.7252 66.3438C33.2506 66.5615 33.6996 66.9299 34.0155 67.4027C34.3314 67.8755 34.5 68.4314 34.5 69C34.4991 69.7622 34.1959 70.493 33.6569 71.0319C33.118 71.5709 32.3872 71.8741 31.625 71.875Z" fill="#8B2860"/>
<path d="M77.625 63.25C76.4877 63.25 75.376 63.5872 74.4304 64.2191C73.4849 64.8509 72.7479 65.7489 72.3127 66.7996C71.8775 67.8502 71.7636 69.0064 71.9855 70.1218C72.2073 71.2372 72.755 72.2617 73.5591 73.0659C74.3633 73.87 75.3878 74.4177 76.5032 74.6395C77.6186 74.8614 78.7747 74.7475 79.8254 74.3123C80.8761 73.8771 81.7741 73.1401 82.4059 72.1945C83.0378 71.249 83.375 70.1372 83.375 69C83.3733 67.4755 82.7669 66.014 81.689 64.936C80.611 63.8581 79.1494 63.2517 77.625 63.25ZM77.625 71.875C77.0564 71.875 76.5005 71.7064 76.0277 71.3905C75.5549 71.0746 75.1864 70.6256 74.9688 70.1002C74.7512 69.5749 74.6943 68.9968 74.8052 68.4391C74.9162 67.8814 75.19 67.3691 75.592 66.9671C75.9941 66.565 76.5064 66.2912 77.0641 66.1802C77.6218 66.0693 78.1999 66.1262 78.7252 66.3438C79.2505 66.5615 79.6996 66.9299 80.0155 67.4027C80.3314 67.8755 80.5 68.4314 80.5 69C80.4991 69.7622 80.1959 70.493 79.6569 71.0319C79.1179 71.5709 78.3872 71.8741 77.625 71.875Z" fill="#8B2860"/>
<path d="M40.25 64.6875H69V67.5625H40.25V64.6875Z" fill="#8B2860"/>
<path d="M40.25 70.4375H69V73.3125H40.25V70.4375Z" fill="#8B2860"/>
</svg>
