<svg width="92" height="92" viewBox="0 0 92 92" fill="none" xmlns="http://www.w3.org/2000/svg">
<path d="M7.75906 7.75907C12.7623 2.75579 19.4146 0 26.49 0C33.5658 0 40.2181 2.75579 45.2214 7.75907C53.563 16.1012 55.1636 28.6667 50.0308 38.6339C51.5173 40.3352 51.4316 43.1189 49.9919 45.7012L56.8639 52.5733L58.3968 51.0404C59.0586 50.3786 60.131 50.3786 60.7928 51.0404L90.1881 80.4357C92.604 82.8516 92.604 86.7685 90.1881 89.1844L89.1839 90.1886C86.768 92.6045 82.8511 92.6045 80.4352 90.1886L51.0394 60.7928C50.3776 60.131 50.3776 59.0586 51.0394 58.3968L52.5723 56.8639L45.7003 49.9919C43.1219 51.4296 40.3422 51.5168 38.6398 50.0368C34.9283 51.9573 30.7886 52.9799 26.4895 52.9799C19.4141 52.9799 12.7618 50.2246 7.75857 45.2214C2.75529 40.2181 -0.000495911 33.5658 -0.000495911 26.4905C-0.000495911 19.4151 2.75579 12.7623 7.75906 7.75907ZM11.2823 41.6976C15.3442 45.7596 20.7452 47.9971 26.49 47.9971C32.2348 47.9971 37.6357 45.7601 41.6981 41.6976C50.0831 33.3122 50.0831 19.6683 41.6981 11.2828C37.6357 7.22087 32.2348 4.98334 26.49 4.98334C20.7457 4.98334 15.3447 7.22037 11.2823 11.2828C7.21986 15.3452 4.98285 20.7457 4.98285 26.4905C4.98335 32.2348 7.22036 37.6357 11.2823 41.6976Z" fill="#8B2860"/>
</svg>
