<svg width="92" height="92" viewBox="0 0 92 92" fill="none" xmlns="http://www.w3.org/2000/svg">
<path d="M88.8056 33.5873C86.7976 32.0357 84.5159 30.9404 81.9603 30.6666C81.0476 25.6468 78.5833 21.1746 74.9325 17.9801C71.0079 14.5119 65.8968 12.4127 60.3294 12.4127H31.4881C25.9206 12.4127 20.8095 14.5119 16.8849 17.9801C13.2341 21.2658 10.6786 25.6468 9.85714 30.6666C7.30159 30.9404 4.92857 32.0357 3.19444 33.7698C1.18651 35.7777 0 38.5158 0 41.5277C0 43.5357 0.547619 45.3611 1.46032 47.0039C2.28175 48.373 3.46825 49.5595 4.74603 50.4722C4.38095 51.4761 4.19841 52.5714 4.19841 53.6666C4.19841 56.496 5.38492 59.1428 7.30159 61.0595C7.48413 61.242 7.66667 61.4246 7.94048 61.5158C7.11905 61.6984 6.38889 62.0634 5.84127 62.6111L5.75 62.7023C4.8373 63.615 4.28968 64.8928 4.28968 66.2619C4.28968 67.6309 4.8373 68.9087 5.75 69.8214C6.6627 70.7341 7.94048 71.2817 9.30952 71.2817H9.94841V78.2182C9.94841 79.0396 10.5873 79.5873 11.3175 79.5873H14.9683C15.6071 79.5873 16.1548 79.2222 16.3373 78.5833L18.5278 71.2817H73.9286L76.119 78.5833C76.3016 79.2222 76.8492 79.5873 77.4881 79.5873H81.1389C81.9603 79.5873 82.5079 78.9484 82.5079 78.2182V71.2817H83.1468C84.5159 71.2817 85.7936 70.7341 86.7063 69.8214C87.619 68.9087 88.1667 67.6309 88.1667 66.2619C88.1667 64.8928 87.619 63.615 86.7063 62.7023C86.0675 62.0634 85.3373 61.6984 84.5159 61.5158C84.6984 61.3333 84.9722 61.242 85.1548 60.9682C87.0714 59.0516 88.2579 56.496 88.2579 53.5754C88.2579 52.2976 87.9841 51.1111 87.619 50.0158C88.8055 49.1031 89.8095 48.0992 90.5397 46.8214C91.4524 45.1785 92 43.3531 92 41.3452C92 38.3333 90.8135 35.5952 88.8056 33.5873ZM18.8016 20.0793C22.1786 17.0674 26.6508 15.242 31.4881 15.242H60.2381C65.0754 15.242 69.5476 17.0674 72.9246 20.0793C76.0278 22.8174 78.2183 26.4682 79.0397 30.6666C78.9484 30.6666 78.8571 30.7579 78.7659 30.7579C78.4921 30.8492 78.2183 30.8492 77.9444 30.9404C77.5794 31.0317 77.2143 31.123 76.8492 31.3055C76.5754 31.3968 76.3016 31.4881 76.119 31.5793C75.754 31.7619 75.3889 31.9444 75.0238 32.1269C74.8413 32.2182 74.5675 32.4008 74.3849 32.492C73.9286 32.7658 73.4722 33.1309 73.1071 33.496C73.0159 33.5873 72.9246 33.5873 72.9246 33.6785C71.4643 35.1388 70.369 37.0555 69.9127 39.246C69.7302 39.9762 69.7302 40.7063 69.7302 41.4365C69.7302 41.9841 69.8214 42.623 69.9127 43.1706H21.9048C21.996 42.623 22.0873 41.9841 22.0873 41.4365C22.0873 38.4246 20.9008 35.6865 18.8929 33.6785C18.8016 33.5873 18.7103 33.5873 18.7103 33.496C18.3452 33.1309 17.8889 32.7658 17.4325 32.492C17.25 32.3095 16.9762 32.2182 16.7936 32.1269C16.4286 31.9444 16.0635 31.7619 15.6984 31.5793C15.4246 31.4881 15.2421 31.3968 14.9683 31.3055C14.6032 31.123 14.2381 31.0317 13.873 30.9404C13.5992 30.8492 13.3254 30.7579 13.0516 30.7579C12.9603 30.7579 12.869 30.6666 12.7778 30.6666C13.5079 26.4682 15.6984 22.8174 18.8016 20.0793ZM3.83333 45.5436C3.19444 44.3571 2.82937 42.9881 2.82937 41.5277C2.82937 39.246 3.74206 37.2381 5.20238 35.7777C6.6627 34.3174 8.7619 33.4047 10.9524 33.4047C13.2341 33.4047 15.2421 34.3174 16.7024 35.7777C18.1627 37.2381 19.0754 39.3373 19.0754 41.5277C19.0754 41.9841 19.0754 42.4404 18.9841 42.8968C18.9841 42.9881 18.8929 43.1706 18.8929 43.2619H14.6032H14.2381C13.9643 43.2619 13.6905 43.3531 13.3254 43.3531C12.9603 43.3531 12.5952 43.4444 12.2302 43.5357C10.9524 43.8095 9.76587 44.1746 8.67063 44.8134C7.48413 45.5436 6.48016 46.5476 5.65873 47.7341C4.92857 47.0952 4.28968 46.365 3.83333 45.5436ZM13.873 76.7579H12.6865V71.2817H15.5159L13.873 76.7579ZM79.6786 76.7579H78.4921L76.8492 71.2817H79.6786V76.7579ZM84.6071 64.8015C84.9722 65.1666 85.246 65.7142 85.246 66.3531C85.246 66.9007 84.9722 67.4484 84.6071 67.9047C84.2421 68.2698 83.6944 68.5436 83.0555 68.5436H81.0476H74.8413H17.3413H11.2262H9.21825C8.57936 68.5436 8.12302 68.2698 7.66667 67.9047C7.30159 67.5396 7.02778 66.992 7.02778 66.3531C7.02778 65.8055 7.30159 65.2579 7.66667 64.8015L7.75794 64.7103C8.12302 64.3452 8.67064 64.1627 9.21825 64.1627H14.6944H77.6706H83.0555C83.6032 64.1627 84.1508 64.4365 84.6071 64.8015ZM83.0555 59.0515C81.6865 60.4206 79.7698 61.242 77.6706 61.242H14.6944C12.5952 61.242 10.6786 60.4206 9.30952 59.0515C7.94048 57.6825 7.02778 55.7658 7.02778 53.6666C7.02778 51.5674 7.84921 49.6508 9.30952 48.2817C10.3135 47.2777 11.6825 46.5476 13.1429 46.1825C13.2341 46.1825 13.3254 46.1825 13.4167 46.1825C13.873 46.0912 14.2381 46.0912 14.6944 46.0912H20.0794H71.8294H77.5794C78.3095 46.0912 79.0397 46.1825 79.6786 46.365H79.7698C80.4087 46.5476 81.0476 46.8214 81.5952 47.1865C82.7817 47.9166 83.7857 49.0119 84.4246 50.2896C84.4246 50.2896 84.4246 50.3809 84.5159 50.3809C84.5159 50.3809 84.6071 50.3809 84.6071 50.4722C85.0635 51.4761 85.3373 52.4801 85.3373 53.5754C85.246 55.7658 84.4246 57.6825 83.0555 59.0515ZM87.8929 45.5436C87.4365 46.365 86.7976 47.0952 86.1587 47.6428C85.7936 47.1865 85.4286 46.7301 85.0635 46.2738C83.877 45.0873 82.3254 44.1746 80.5913 43.7182C80.5 43.7182 80.4087 43.6269 80.4087 43.6269C79.496 43.3531 78.6746 43.2619 77.6706 43.2619H72.8333C72.8333 43.1706 72.7421 42.9881 72.7421 42.8968C72.6508 42.4404 72.6508 41.9841 72.6508 41.5277C72.6508 39.246 73.5635 37.2381 75.0238 35.7777C75.754 35.0476 76.6667 34.4087 77.5794 34.0436H77.6706C78.127 33.8611 78.5833 33.6785 79.131 33.5873C79.2222 33.5873 79.3135 33.5873 79.4048 33.5873C79.8611 33.496 80.3175 33.4047 80.7738 33.4047C83.0555 33.4047 85.0635 34.3174 86.5238 35.7777C87.9841 37.2381 88.8968 39.3373 88.8968 41.5277C88.9881 42.9881 88.5317 44.3571 87.8929 45.5436Z" fill="#8B2860"/>
<path d="M48.1904 29.2977L49.2856 28.2024C49.8332 27.6548 49.8332 26.7421 49.2856 26.1945C48.738 25.6469 47.8253 25.6469 47.2777 26.1945L46.1824 27.2897L44.9959 26.1032C44.4483 25.5556 43.5356 25.5556 42.988 26.1032C42.4404 26.6508 42.4404 27.5635 42.988 28.1112L44.0832 29.2064L42.988 30.3016C42.4404 30.9405 42.4404 31.7619 43.0793 32.4008C43.6269 32.9484 44.5396 32.9484 45.0872 32.4008L46.1824 31.3056L47.2777 32.4008C47.8253 32.9484 48.738 32.9484 49.2856 32.4008C49.8332 31.8532 49.8332 30.9405 49.2856 30.3929L48.1904 29.2977Z" fill="#8B2860"/>
<path d="M33.2223 29.2976L34.3175 28.2023C34.8651 27.6547 34.8651 26.742 34.3175 26.1944C33.7699 25.6468 32.8572 25.6468 32.3096 26.1944L31.2143 27.2896L30.1191 26.1944C29.5715 25.6468 28.6588 25.6468 28.1112 26.1944C27.5635 26.742 27.5635 27.6547 28.1112 28.2023L29.2064 29.2976L28.1112 30.3928C27.5635 30.9404 27.5635 31.7619 28.1112 32.4008C28.6588 32.9484 29.5715 32.9484 30.1191 32.4008L31.2143 31.3055L32.3096 32.4008C32.8572 32.9484 33.7699 32.9484 34.3175 32.4008C34.8651 31.8531 34.8651 30.9404 34.3175 30.3928L33.2223 29.2976Z" fill="#8B2860"/>
<path d="M63.0675 29.2976L64.1627 28.2023C64.7103 27.6547 64.7103 26.742 64.1627 26.1944C63.6151 25.6468 62.7024 25.6468 62.1548 26.1944L61.0595 27.2896L59.9643 26.1944C59.4167 25.6468 58.504 25.6468 57.9564 26.1944C57.4087 26.742 57.4087 27.6547 57.9564 28.2023L59.0516 29.2976L57.9564 30.3928C57.4087 30.9404 57.4087 31.7619 57.9564 32.4008C58.504 32.9484 59.4167 32.9484 59.9643 32.4008L61.0595 31.3055L62.1548 32.4008C62.7024 32.9484 63.6151 32.9484 64.1627 32.4008C64.7103 31.8531 64.7103 30.9404 64.1627 30.3928L63.0675 29.2976Z" fill="#8B2860"/>
</svg>
