<svg width="84" height="14" viewBox="0 0 84 14" fill="none" xmlns="http://www.w3.org/2000/svg">
<path d="M7.64941 6.91895C7.64941 7.61621 7.45117 8.14941 7.05469 8.51855C6.66276 8.88314 6.10677 9.06543 5.38672 9.06543C4.67122 9.06543 4.09701 8.82617 3.66406 8.34766C3.23568 7.86458 3.02148 7.20833 3.02148 6.37891V5.62695C3.02148 4.82487 3.23796 4.18457 3.6709 3.70605C4.1084 3.22298 4.68034 2.98145 5.38672 2.98145C6.11589 2.98145 6.67643 3.16829 7.06836 3.54199C7.46029 3.91569 7.65625 4.44206 7.65625 5.12109H6.6582C6.6582 4.66992 6.54883 4.34863 6.33008 4.15723C6.11589 3.96126 5.80143 3.86328 5.38672 3.86328C4.95833 3.86328 4.62109 4.02051 4.375 4.33496C4.12891 4.64941 4.00586 5.08691 4.00586 5.64746V6.41992C4.00586 6.9668 4.12891 7.39746 4.375 7.71191C4.62109 8.02637 4.95833 8.18359 5.38672 8.18359C5.80599 8.18359 6.12044 8.08789 6.33008 7.89648C6.54427 7.70508 6.65137 7.37923 6.65137 6.91895H7.64941ZM1.4082 6.0166C1.4082 6.80046 1.59049 7.52734 1.95508 8.19727C2.31966 8.86263 2.81413 9.38444 3.43848 9.7627C4.06738 10.141 4.74642 10.3301 5.47559 10.3301C6.20475 10.3301 6.88151 10.141 7.50586 9.7627C8.13021 9.38444 8.62467 8.86263 8.98926 8.19727C9.35384 7.52734 9.53613 6.80046 9.53613 6.0166C9.53613 5.24186 9.35612 4.52409 8.99609 3.86328C8.63607 3.20247 8.1416 2.68294 7.5127 2.30469C6.88835 1.92188 6.20931 1.73047 5.47559 1.73047C4.74642 1.73047 4.06738 1.9196 3.43848 2.29785C2.80957 2.67155 2.31283 3.19108 1.94824 3.85645C1.58822 4.52181 1.4082 5.24186 1.4082 6.0166ZM0.62207 6.0166C0.62207 5.09603 0.833984 4.24154 1.25781 3.45312C1.6862 2.66471 2.27637 2.04492 3.02832 1.59375C3.78483 1.13802 4.60059 0.910156 5.47559 0.910156C6.35059 0.910156 7.16406 1.13802 7.91602 1.59375C8.66797 2.04492 9.25586 2.66471 9.67969 3.45312C10.1081 4.24154 10.3223 5.09603 10.3223 6.0166C10.3223 6.91439 10.1172 7.75521 9.70703 8.53906C9.29688 9.32292 8.71354 9.9541 7.95703 10.4326C7.20508 10.9066 6.37793 11.1436 5.47559 11.1436C4.5778 11.1436 3.75065 10.9089 2.99414 10.4395C2.24219 9.96549 1.65885 9.33659 1.24414 8.55273C0.829427 7.76888 0.62207 6.9235 0.62207 6.0166ZM22.2373 2.12695H19.0381V11H17.7324V2.12695H14.54V1.04688H22.2373V2.12695ZM25.0264 7.10352V11H23.7139V1.04688H27.3848C28.474 1.04688 29.3262 1.32487 29.9414 1.88086C30.5612 2.43685 30.8711 3.17285 30.8711 4.08887C30.8711 5.05501 30.568 5.80013 29.9619 6.32422C29.3604 6.84375 28.4967 7.10352 27.3711 7.10352H25.0264ZM25.0264 6.03027H27.3848C28.0866 6.03027 28.6243 5.86621 28.998 5.53809C29.3717 5.2054 29.5586 4.72689 29.5586 4.10254C29.5586 3.51009 29.3717 3.03613 28.998 2.68066C28.6243 2.3252 28.1117 2.14062 27.46 2.12695H25.0264V6.03027ZM32.5869 1.04688H33.9062V9.92676H38.8145V1.04688H40.127V9.89941H41.1729L41.0498 13.3994H39.8672V11H32.5869V1.04688ZM48.6924 7.28809H45.3564V6.25586H48.6924V7.28809ZM59.7939 11H53.2725V10.0908L56.7178 6.2627C57.2282 5.68392 57.5791 5.21452 57.7705 4.85449C57.9665 4.48991 58.0645 4.11393 58.0645 3.72656C58.0645 3.20703 57.9072 2.78092 57.5928 2.44824C57.2783 2.11556 56.859 1.94922 56.335 1.94922C55.7061 1.94922 55.2161 2.12923 54.8652 2.48926C54.5189 2.84473 54.3457 3.34147 54.3457 3.97949H53.0811C53.0811 3.06348 53.375 2.32292 53.9629 1.75781C54.5553 1.19271 55.346 0.910156 56.335 0.910156C57.2601 0.910156 57.9915 1.15397 58.5293 1.6416C59.0671 2.12467 59.3359 2.76953 59.3359 3.57617C59.3359 4.55599 58.7116 5.72266 57.4629 7.07617L54.7969 9.96777H59.7939V11ZM67.375 6.75488C67.375 8.236 67.1221 9.33659 66.6162 10.0566C66.1104 10.7767 65.3197 11.1367 64.2441 11.1367C63.1823 11.1367 62.3962 10.7858 61.8857 10.084C61.3753 9.3776 61.111 8.32487 61.0928 6.92578V5.2373C61.0928 3.77441 61.3457 2.6875 61.8516 1.97656C62.3574 1.26562 63.1504 0.910156 64.2305 0.910156C65.3014 0.910156 66.0898 1.25423 66.5957 1.94238C67.1016 2.62598 67.3613 3.68327 67.375 5.11426V6.75488ZM66.1104 5.02539C66.1104 3.95443 65.96 3.17513 65.6592 2.6875C65.3584 2.19531 64.8822 1.94922 64.2305 1.94922C63.5833 1.94922 63.1117 2.19303 62.8154 2.68066C62.5192 3.16829 62.3665 3.91797 62.3574 4.92969V6.95312C62.3574 8.02865 62.5124 8.82389 62.8223 9.33887C63.1367 9.84928 63.6107 10.1045 64.2441 10.1045C64.8685 10.1045 65.3311 9.86296 65.6318 9.37988C65.9372 8.89681 66.0967 8.13574 66.1104 7.09668V5.02539ZM75.5166 11H68.9951V10.0908L72.4404 6.2627C72.9508 5.68392 73.3018 5.21452 73.4932 4.85449C73.6891 4.48991 73.7871 4.11393 73.7871 3.72656C73.7871 3.20703 73.6299 2.78092 73.3154 2.44824C73.001 2.11556 72.5817 1.94922 72.0576 1.94922C71.4287 1.94922 70.9388 2.12923 70.5879 2.48926C70.2415 2.84473 70.0684 3.34147 70.0684 3.97949H68.8037C68.8037 3.06348 69.0977 2.32292 69.6855 1.75781C70.278 1.19271 71.0687 0.910156 72.0576 0.910156C72.9827 0.910156 73.7142 1.15397 74.252 1.6416C74.7897 2.12467 75.0586 2.76953 75.0586 3.57617C75.0586 4.55599 74.4342 5.72266 73.1855 7.07617L70.5195 9.96777H75.5166V11ZM83.0977 6.75488C83.0977 8.236 82.8447 9.33659 82.3389 10.0566C81.833 10.7767 81.0423 11.1367 79.9668 11.1367C78.9049 11.1367 78.1188 10.7858 77.6084 10.084C77.098 9.3776 76.8337 8.32487 76.8154 6.92578V5.2373C76.8154 3.77441 77.0684 2.6875 77.5742 1.97656C78.0801 1.26562 78.873 0.910156 79.9531 0.910156C81.0241 0.910156 81.8125 1.25423 82.3184 1.94238C82.8242 2.62598 83.084 3.68327 83.0977 5.11426V6.75488ZM81.833 5.02539C81.833 3.95443 81.6826 3.17513 81.3818 2.6875C81.0811 2.19531 80.6048 1.94922 79.9531 1.94922C79.306 1.94922 78.8343 2.19303 78.5381 2.68066C78.2419 3.16829 78.0892 3.91797 78.0801 4.92969V6.95312C78.0801 8.02865 78.235 8.82389 78.5449 9.33887C78.8594 9.84928 79.3333 10.1045 79.9668 10.1045C80.5911 10.1045 81.0537 9.86296 81.3545 9.37988C81.6598 8.89681 81.8193 8.13574 81.833 7.09668V5.02539Z" fill="white"/>
</svg>
