<svg width="92" height="55" viewBox="0 0 92 55" fill="none" xmlns="http://www.w3.org/2000/svg">
<path d="M17.7497 18.334C18.9986 18.334 20.2183 18.4721 21.3965 18.7268L25.8256 2.83758H20.4736C18.5784 2.83758 17.0383 4.42885 17.0383 6.38734C17.0383 8.345 18.5784 9.93586 20.4736 9.93586C21.2341 9.93586 21.8461 10.571 21.8461 11.3536C21.8461 12.1379 21.2341 12.7726 20.4736 12.7726C17.0651 12.7726 14.2957 9.90783 14.2957 6.38692C14.2957 2.86602 17.0651 0 20.4716 0H31.7155C32.4755 0 33.0904 0.635106 33.0904 1.41899C33.0904 2.20288 32.4755 2.83676 31.7155 2.83676H28.6421C28.6345 2.90682 28.6473 2.981 28.6277 3.05024L26.3778 11.1199H54.8675L57.1086 3.07703H49.6404C48.8787 3.07703 48.265 2.44193 48.265 1.65556C48.265 0.872498 48.8787 0.237804 49.6404 0.237804H64.752C65.5125 0.237804 66.1269 0.872498 66.1269 1.65556C66.1269 2.44234 65.5121 3.07703 64.752 3.07703H59.9669L57.5495 11.7526L65.0752 21.0067C67.7548 19.3203 70.8916 18.334 74.2527 18.334C84.0422 18.334 92 26.5566 92 36.6652C92 46.7791 84.0422 55 74.2527 55C64.7739 55 57.0324 47.2806 56.5488 37.6135H54.6756C54.1314 40.7705 51.4685 43.1749 48.2631 43.1749C44.665 43.1749 41.7336 40.1481 41.7336 36.429C41.7336 34.9585 42.2024 33.6079 42.9789 32.5017L25.2714 15.0827L24.0274 19.5383C30.716 22.1649 35.4947 28.8403 35.4947 36.6647C35.4947 46.7758 27.5309 54.9971 17.7473 54.9971C7.95899 54.9971 0 46.7758 0 36.6647C0 26.5566 7.96338 18.334 17.7497 18.334ZM56.6314 15.0361L52.1659 31.0535C53.337 31.9618 54.1956 33.2596 54.5686 34.7705H56.5987C57.0799 29.9193 59.402 25.6342 62.8265 22.6541L56.6314 15.0361ZM70.347 34.773C70.5329 34.1152 70.8365 33.523 71.2423 33.0062L64.5928 24.8273C61.7735 27.2869 59.848 30.7951 59.3752 34.7705L70.347 34.773ZM74.2527 52.1595C82.5249 52.1595 89.2538 45.208 89.2538 36.6652C89.2538 28.1203 82.5253 21.1737 74.2527 21.1737C71.5631 21.1737 69.0427 21.9163 66.8558 23.2014L73.5089 31.3848C73.9961 31.2167 74.5088 31.1037 75.053 31.1037C77.7705 31.1037 79.9765 33.3899 79.9765 36.1933C79.9765 38.9991 77.7681 41.2778 75.053 41.2778C72.8167 41.2778 70.9459 39.7265 70.3422 37.609H59.2974C59.7762 45.7149 66.2909 52.1595 74.2527 52.1595ZM45.0329 30.6046C45.9888 30.0351 47.0809 29.6885 48.2631 29.6885C48.7378 29.6885 49.1983 29.7462 49.6479 29.8467L54.0743 13.9571H28.1118L45.0329 30.6046ZM17.7497 52.1595C26.0199 52.1595 32.7496 45.208 32.7496 36.6652C32.7496 30.1352 28.814 24.5478 23.2649 22.2704L19.125 37.1144C18.9551 37.7347 18.4013 38.141 17.8084 38.141C17.6795 38.141 17.5506 38.1233 17.4293 38.0879C16.7008 37.8723 16.2779 37.0818 16.4869 36.3289L20.6316 21.458C19.6988 21.2734 18.7316 21.1679 17.7477 21.1679C9.47553 21.1679 2.74542 28.117 2.74542 36.6598C2.74503 45.2125 9.47514 52.1595 17.7497 52.1595Z" fill="#8B2860"/>
</svg>
