<svg width="92" height="92" viewBox="0 0 92 92" fill="none" xmlns="http://www.w3.org/2000/svg">
<path d="M29.8281 0C28.3396 0 27.1328 1.20678 27.1328 2.69531V16.5312H19.0469C17.5583 16.5312 16.3516 17.738 16.3516 19.2266V30.0078C16.3516 31.4963 17.5583 32.7031 19.0469 32.7031H21.7422V46.1797C21.7422 58.6908 31.2629 69.0192 43.4396 70.3026C44.723 82.4793 55.0514 92 67.5625 92C69.051 92 70.2578 90.7932 70.2578 89.3047C70.2578 87.8162 69.051 86.6094 67.5625 86.6094C58.0153 86.6094 50.1028 79.4812 48.8648 70.2675C60.8954 68.8456 70.2578 58.5862 70.2578 46.1797V32.7031H72.9531C74.4417 32.7031 75.6484 31.4963 75.6484 30.0078V19.2266C75.6484 17.738 74.4417 16.5312 72.9531 16.5312H64.8672V2.69531C64.8672 1.20678 63.6604 0 62.1719 0C60.6833 0 59.4766 1.20678 59.4766 2.69531V16.5312H32.5234V2.69531C32.5234 1.20678 31.3167 0 29.8281 0ZM70.2578 27.3125H67.5625C66.074 27.3125 64.8672 28.5193 64.8672 30.0078V46.1797C64.8672 56.5831 56.4034 65.0469 46 65.0469C35.5966 65.0469 27.1328 56.5831 27.1328 46.1797V30.0078C27.1328 28.5193 25.926 27.3125 24.4375 27.3125H21.7422V21.9219H70.2578V27.3125Z" fill="#8B2860"/>
<path d="M52.596 43.7688L45.1594 40.0505L47.9058 37.3042C50.4254 34.7848 46.6174 30.9688 44.0941 33.4925L38.7034 38.8831C37.4041 40.1824 37.759 42.3773 39.4039 43.1997L46.8404 46.918L44.0941 49.6644C41.5686 52.1897 45.4114 55.9709 47.9058 53.4761L53.2964 48.0854C54.5959 46.7861 54.2408 44.5914 52.596 43.7688Z" fill="#8B2860"/>
</svg>
