<svg width="92" height="62" viewBox="0 0 92 62" fill="none" xmlns="http://www.w3.org/2000/svg">
<path d="M87.8035 45.7085C87.703 45.644 87.4427 45.5884 87.3348 45.5419L48.2223 28.8884V23.4776C55.662 22.6157 59.3354 17.8876 59.3354 11.8087C59.3354 5.07751 54.4178 0 47.7926 0C40.8366 0 35 5.52362 35 12.0631C35 13.1882 35.9672 14.102 37.1352 14.102C37.483 14.102 37.8067 14.0018 38.0949 13.8601C38.7794 13.5214 39.2666 12.8549 39.2666 12.0631C39.2666 7.80963 43.2877 4.07775 47.8669 4.07775C52.1465 4.07775 55.2545 7.32961 55.2545 11.8087C55.2545 16.216 51.5568 19.5396 46.5165 19.5396C45.3485 19.5396 44.5022 20.4534 44.5022 21.5785V25.5631V29.5639C44.5022 29.6032 44.4203 29.6356 44.4242 29.675L6.92626 46.7478C1.39675 48.6668 -0.496732 53.0329 0.107782 56.3653C0.729023 59.7927 3.74576 62 7.65351 62H82.1307C86.7563 62 90.385 59.6941 91.5996 55.8279C92.7991 52.0189 91.2369 47.9124 87.8035 45.7085ZM87.5485 54.8945C86.8771 57.0355 84.9019 58.4169 82.1324 58.4169H7.65351C5.76197 58.4169 4.52124 57.4063 4.24971 55.9122C3.94104 54.2065 5.07927 51.7843 8.4959 50.5874L47.3052 32.8661L85.5918 49.2884C87.3906 50.5263 88.1941 52.8412 87.5485 54.8945Z" fill="#8B2860"/>
</svg>
