<svg width="92" height="92" viewBox="0 0 92 92" fill="none" xmlns="http://www.w3.org/2000/svg">
<g clip-path="url(#clip0)">
<path d="M55.29 25.6338C54.5786 24.6084 53.4312 23.9999 52.2101 23.9999H51.8356C50.2015 23.9999 48.7521 25.0815 48.2383 26.6839L40.0935 52.0784L31.9109 26.6787C31.3953 25.0794 29.947 23.9999 28.315 23.9999H28.0719C28.0568 23.9999 28.0411 24.0009 28.0266 24.0009C28.011 24.0009 27.9956 23.9999 27.9808 23.9999H27.6856C26.0515 23.9999 24.6018 25.0815 24.0877 26.6839L15.9432 52.0784L7.76087 26.6787C7.24557 25.0794 5.79671 23.9999 4.16503 23.9999H3.78995C2.56826 23.9999 1.42142 24.6084 0.709409 25.6338C-0.00259983 26.6598 -0.191324 27.9777 0.200621 29.1727L12.0699 65.3416C12.5914 66.9312 14.0349 67.9999 15.6595 67.9999H15.8163C15.8616 67.9999 15.9059 67.9975 15.9509 67.9957C15.9956 67.9975 16.0402 67.9999 16.0852 67.9999H16.1899C17.8168 67.9999 19.2622 66.9269 19.7816 65.3346L28.0184 40.067L36.2175 65.3291C36.7355 66.9247 38.1823 67.9999 39.811 67.9999H39.9669C40.0122 67.9999 40.0565 67.9975 40.1018 67.9957C40.1462 67.9975 40.1911 67.9999 40.2361 67.9999H40.3411C41.9654 67.9999 43.4086 66.9312 43.9304 65.3416L55.7997 29.1727C56.1913 27.9777 56.0017 26.6601 55.29 25.6338Z" fill="#8B2860"/>
<path d="M90.6459 56.6338C89.2515 55.2842 87.1092 55.2347 85.6588 56.5183C83.1606 58.7292 79.9385 59.9468 76.5868 59.9468C68.9438 59.9468 62.7259 53.6784 62.7259 45.9734C62.7259 38.2973 68.9438 32.0528 76.5868 32.0528C79.9707 32.0528 83.1899 33.2496 85.6523 35.4229C87.1438 36.7389 89.3538 36.6439 90.7359 35.2032L90.8611 35.0727C91.6069 34.2958 92.0042 33.2279 91.9576 32.1301C91.9104 31.0323 91.4234 30.0054 90.6148 29.3007C86.6946 25.8826 81.7119 23.9999 76.5865 23.9999C64.6838 23.9999 54.9999 33.8572 54.9999 45.9737C54.9999 58.1188 64.6838 67.9999 76.5865 67.9999C81.7037 67.9999 86.6993 66.1029 90.6532 62.6576C91.4806 61.9364 91.971 60.8798 91.9986 59.7561C92.0273 58.632 91.5902 57.5495 90.8004 56.7845L90.6459 56.6338Z" fill="#8B2860"/>
</g>
<defs>
<clipPath id="clip0">
<rect width="92" height="92" fill="white"/>
</clipPath>
</defs>
</svg>
