<svg width="92" height="92" viewBox="0 0 92 92" fill="none" xmlns="http://www.w3.org/2000/svg">
<g clip-path="url(#clip0)">
<path d="M45.8204 83.8241C49.0953 83.8241 51.7501 81.1693 51.7501 77.8945C51.7501 74.6196 49.0953 71.9648 45.8204 71.9648C42.5455 71.9648 39.8907 74.6196 39.8907 77.8945C39.8907 81.1693 42.5455 83.8241 45.8204 83.8241Z" fill="#8B2860"/>
<path d="M91.0353 27.8271C79.2244 15.155 63.231 8.17596 45.9994 8.17578C28.7692 8.17596 12.7758 15.155 0.964747 27.8271C-0.388297 29.279 -0.308336 31.5531 1.14354 32.9063C2.59559 34.2594 4.86953 34.1796 6.22275 32.7275C16.659 21.5301 30.7853 15.3634 46.0006 15.3633C61.2148 15.3634 75.341 21.5301 85.7773 32.7275C86.4851 33.4869 87.4448 33.871 88.407 33.871C89.2844 33.871 90.164 33.5516 90.8565 32.9063C92.3084 31.5529 92.3885 29.279 91.0353 27.8271Z" fill="#8B2860"/>
<path d="M77.8394 42.6682C69.1089 33.8718 57.8014 29.0276 45.9995 29.028C34.195 29.0281 22.8873 33.8725 14.1595 42.6685C12.7616 44.0775 12.7704 46.3528 14.1793 47.7508C15.5882 49.1488 17.8636 49.14 19.2616 47.731C26.6296 40.3053 36.1254 36.2156 45.9995 36.2154C55.8712 36.2151 65.3669 40.3049 72.7377 47.7314C73.4403 48.4392 74.3642 48.7935 75.2886 48.7935C76.2035 48.7935 77.1192 48.446 77.8204 47.7505C79.2289 46.3523 79.2375 44.0769 77.8394 42.6682Z" fill="#8B2860"/>
<path d="M63.4567 57.5523C58.7812 52.9202 52.0795 50.0428 45.9661 50.0428C45.9654 50.0428 45.9642 50.0428 45.9634 50.0428H45.7045C45.7034 50.0428 45.7029 50.0428 45.7018 50.0428C39.5883 50.0428 32.886 52.9204 28.2107 57.5523C26.8009 58.9492 26.7903 61.2246 28.1872 62.6346C28.8899 63.3438 29.815 63.6991 30.7402 63.6991C31.6542 63.6991 32.5687 63.3524 33.2693 62.6583C36.5976 59.3607 41.4774 57.2303 45.7022 57.2303C45.7027 57.2303 45.7034 57.2303 45.704 57.2303H45.964C45.9647 57.2303 45.9649 57.2303 45.9656 57.2303C50.1899 57.2303 55.07 59.3609 58.398 62.6583C59.8078 64.055 62.0835 64.045 63.4803 62.6346C64.8773 61.2248 64.8667 58.9492 63.4567 57.5523Z" fill="#8B2860"/>
</g>
<defs>
<clipPath id="clip0">
<rect width="92" height="92" fill="white"/>
</clipPath>
</defs>
</svg>
